<?xml version="1.0" encoding="UTF-8" standalone="no"?>
<!-- Created with Inkscape (http://www.inkscape.org/) -->

<svg
   version="1.1"
   id="svg1"
   width="1254"
   height="1254"
   viewBox="0 0 1254 1254"
   xmlns="http://www.w3.org/2000/svg"
   xmlns:svg="http://www.w3.org/2000/svg">
  <defs
     id="defs1" />
  <g
     id="g1"
     style="fill:#ffffff">
    <path
       style="fill:#ffffff;stroke:none"
       d="m 362.26667,620.46666 12,-6 c -3.93295,-16.55804 -13.32544,-32.48737 -18.27853,-49 -8.72486,-29.08698 -11.70356,-61.74951 -9.63196,-92 8.05762,-117.66144 94.92109,-219.38416 208.91049,-247.87341 22.3405,-5.5835 47.901,-10.6178 71,-9.03711 55.036,3.76611 106.3427,17.79669 152,50.05481 9.5841,6.77142 18.7512,14.13073 27.5756,21.8565 3.0103,2.63556 7.1328,8.53321 11.3349,8.96216 3.7497,0.38281 7.7632,-5.62402 10.0895,-7.96295 v -1 c -23.604,-25.32178 -53.2322,-44.52948 -84,-59.91357 -9.7713,-4.88562 -24.9158,-13.79712 -36,-13.08643 -2.7906,-3.4541 -8.815,-3.8739 -13,-4.98608 -12.7757,-3.39527 -25.8925,-5.60059 -39,-7.16907 -55.326,-6.62024 -112.1672,4.05603 -162,28.90826 -109.01538,54.36743 -172.07156,171.70172 -159.16589,292.24689 3.45449,32.2666 11.70544,67.69159 28.16589,96 m 242,-417 v 1 h -3 l 3,-1 m 41,0 -1,1 1,-1 m 32,4.33337 c 0.7732,0 0.1601,0.49768 -0.3333,0.33326 l 0.3333,-0.33326 m 16,3.66663 -1,1 1,-1 m 3,1 -1,1 1,-1 m -108,3 -1,1 1,-1 m 11,0 v 1 h -3 l 3,-1 m -66,2 -1,1 1,-1 m 183,1 5,2 v 1 l -6,-2 1,-1 m -183,1 -1,1 1,-1 m 179,0.33337 c 0.7733,0 0.1601,0.49768 -0.3333,0.33326 l 0.3333,-0.33326 m -188,0.66663 -1,1 1,-1 m 33,2 -1,1 1,-1 m 135,1 -1,1 1,-1 m 8,2 -1,1 1,-1 m 15,5.33331 c 0.7735,0 0.1601,0.49787 -0.3333,0.33338 l 0.3333,-0.33338 m -216,0.66669 -1,1 1,-1 m 245,0 -1,1 1,-1 m -219,1 -1,1 1,-1 m -30,1.33331 0.3333,0.33338 c -0.4935,0.16455 -1.1067,-0.33338 -0.3333,-0.33338 m 5,0.66669 -1,1 1,-1 m 9,4 -1,1 1,-1 m 252,2 -1,1 1,-1 m -280,1 -1,1 1,-1 m 260,0 -1,1 1,-1 m 34,7 1,2 -1,-2 m -309,1 v 2 h -2 l 2,-2 m 290,0 -1,1 1,-1 m 17,2 -1,1 1,-1 m 9,1 -1,1 1,-1 m -321,10 -1,1 1,-1 m 316,0.33331 c 0.7734,0 0.1601,0.49787 -0.3333,0.33338 l 0.3333,-0.33338 m 3,1.66669 -1,1 1,-1 m 70,28 v 2 c 25.0228,10.41815 52.3783,25.08099 75,40 l -47,29.58026 -35,-3.48614 -14,5.90588 v 2 l 25,15 v 1 c -10.1598,8.05957 -0.3778,15.54028 9,15 l 4,20 c 16.7846,-4.93903 8.8381,-18.51202 18.5131,-28.36267 4.6259,-4.7099 12.7499,-7.53272 18.4869,-10.72919 11.8841,-6.62152 23.492,-14.51825 36,-19.90814 5.1737,21.73175 4.9974,49.61823 5,72 17.0716,-5.02173 19.2292,-16.74451 23.5786,-32 4.1864,-14.68335 8.5387,-29.31427 12.7115,-44 1.9463,-6.84998 2.9334,-15.84253 6.6474,-21.95679 3.424,-5.63708 11.6394,-8.70538 17.06253,-12.09338 13.7552,-8.59351 28.7144,-16.13788 40.9961,-26.81946 5.1241,-4.45654 15.2563,-13.24689 13.6428,-21.08642 -0.9626,-4.67695 -6.6366,-5.65876 -10.6389,-5.95368 -10.0349,-0.73944 -19.9515,2.07526 -29,6.21838 -13.7113,6.27808 -26.22573,15.31177 -39.00003,23.26777 -4.7838,2.97937 -11.0879,8.74524 -17,8.53314 -7.8018,-0.27985 -16.4343,-3.84467 -24,-5.73609 -16.2787,-4.06964 -32.6324,-8.10931 -49,-11.79712 -7.1799,-1.61773 -16.6316,-6.09649 -24,-5.21136 -5.953,0.71509 -11.8077,5.8714 -17,8.63501 m -62,-21 -3,-1 3,1 m -357,5 -1,1 1,-1 m 382,5 -1,1 1,-1 m 3,2 -1,1 1,-1 m 4.6667,1.66669 -0.3334,0.66662 0.3334,-0.66662 m -383.6667,0.33331 -1,1 1,-1 m 373,1 -2,2 2,-2 m -382,301 c 22.3965,-5.30737 44.4242,-16.87964 66,-24.94983 8.5759,-3.2077 22.557,-5.55792 29.3873,-11.75232 11.0022,-9.97784 16.2941,-33.07171 22.8604,-46.29785 12.3335,-24.84265 23.9319,-50.03638 36.0108,-75 6.8537,-14.16467 16.3855,-28.8786 20.7415,-44 h 2 l 16.7523,36 33.2477,70 c 21.792,-6.27759 44.4403,-22.58374 64,-34 -3.8658,-13.52222 -11.7173,-26.31403 -17.7022,-39 -12.5946,-26.69647 -24.858,-53.59723 -38.0509,-80 -4.9581,-9.92249 -9.7289,-19.97125 -14.4661,-30 -1.705,-3.60962 -2.991,-9.57849 -6.4181,-11.97223 -4.0689,-2.84198 -13.5749,-1.02777 -18.3627,-1.02777 h -40 c -4.914,0 -13.0934,-1.56628 -17.5849,0.60339 -4.9488,2.39057 -8.2623,14.57526 -10.4398,19.39661 -7.7303,17.11633 -15.8251,34.20349 -24.2222,51 -22.742,45.48999 -42.8697,92.23901 -65.0116,138 -12.7645,26.38062 -30.6426,54.88684 -38.7415,83 m -41,-255 -1,1 1,-1 m 2,9 -1,1 1,-1 m -17,7 -1,1 1,-1 m -4,8 -1,1 1,-1 m 6,9 -1,1 1,-1 m -14,7 -1,1 1,-1 m 3,0 -1,1 1,-1 m 83,373 v -1 c -8.0284,-1.55688 -16.33505,-3.15625 -24,-6.06555 -4.82031,-1.82959 -9.75211,-4.2251 -14,-7.15515 -14.01443,-9.66669 -14.6442,-23.85602 -4.48224,-36.7793 12.90631,-16.41339 31.77574,-28.86279 49.48224,-39.55017 96.755,-58.40003 200.0991,-103.10022 293,-168.24768 23.8468,-16.72284 46.5556,-34.9057 69,-53.45215 6.55,-5.41248 21.7652,-14.18378 19,-23.75 -15.5439,4.03186 -31.3589,20.03503 -45,28.57562 -33.3297,20.86731 -67.2111,41.12653 -102,59.48303 -89.7023,47.33179 -186.4059,78.51404 -277,123.69446 -30.6012,15.26123 -62.34656,30.96906 -88.16977,53.76081 -9.98804,8.81549 -23.10965,20.9262 -22.77545,35.48608 0.36728,16.00055 21.04529,23.25995 33.94522,26.62268 36.82782,9.6001 75.27371,8.37732 113,8.37732 m -109,-293 -1,1 1,-1 m 407,61 -59,38 c 3.0185,16.98663 15.0653,35.58472 22.7531,51 2.7492,5.5127 5.0789,14.5025 10.2469,18 -0.085,11.3324 10.8455,25.88141 15.7415,36 13.3816,27.65601 30.3438,55.9303 40.2585,85 h 79 l -68.6798,-144 -26.0124,-55 -14.3078,-29 m 0,2 -1,1 1,-1 m -2,1 -1,1 1,-1 m -2,7 -1,1 1,-1 m -11,2 -1,1 1,-1 m -5,4 -1,1 1,-1 m 26,0 1,2 h -2 l 1,-2 m -29,2 -1,1 1,-1 m -21,13 -1,1 1,-1 m -2,1 -6,4 v -1 l 6,-3 m 60,1 1,3 h -1 v -3 m -67,3 1,3 h -1 v -3 m -351,1 -1,1 1,-1 m 349,1 -1,1 1,-1 m 1.6667,2.66669 -0.3334,0.66662 0.3334,-0.66662 m -1.6667,1.33331 -1,1 1,-1 m 1,2 -1,1 1,-1 m 76,12 -1,1 1,-1 m 3,0 -1,1 1,-1 m -423,1 v 3 h -1 l 1,-3 m 351,3 -1,1 1,-1 m -338,15 -1,1 1,-1 m 348,5 -1,1 1,-1 m 76,3 -1,1 1,-1 m -428.33334,1.66669 -0.33332,0.66662 0.33332,-0.66662 m 11.33334,6.33331 -1,1 1,-1 m -5,1 -1,1 1,-1 m 2,3 -1,1 1,-1 m -3,1 -1,1 1,-1 m 429,1 -1,1 1,-1 m -417,3 -1,1 1,-1 m 344,0 -1,1 1,-1 m 77,7 -1,1 1,-1 m -73,1 -1,1 1,-1 m 77,5 -1,1 1,-1 m -74.3333,1.66669 -0.3334,0.66662 0.3334,-0.66662 m 75.3333,0.33331 -1,1 1,-1 m -74.3333,2.66669 -0.3334,0.66662 0.3334,-0.66662 m 81.3333,13.33331 -1,1 1,-1 m 1,3 1,2 h -2 l 1,-2 m 2,3 -1,1 1,-1 m -2,2 -1,1 1,-1 m 3,0 -1,1 1,-1 m -73,1 -1,1 1,-1 m 4,10 -1,1 1,-1 m 77,5 -1,1 1,-1 m -71,8 1,2 -1,-2 m 74.6667,0.66669 -0.3334,0.66662 0.3334,-0.66662 m -73,3 -0.3334,0.66662 0.3334,-0.66662 m 75.3333,2.33331 -1,1 1,-1 m -72.3333,3.66669 -0.3334,0.66662 0.3334,-0.66662 m 3.3333,-0.66669 -1,1 1,-1 m 1,9 -1,1 1,-1 m 75.6667,3.66669 -0.3334,0.66662 0.3334,-0.66662 m -1,3 -0.3334,0.66662 0.3334,-0.66662 m 2.3333,0.33331 -1,1 1,-1 m -72,2 -1,1 1,-1 m 70,2 -1,1 1,-1 m -69,1 3,8 h -1 l -2,-8 m 78,10 -1,1 1,-1 m 2,1 -1,1 1,-1 m 0,5 -1,3 h -1 l 2,-3 m 3,2 -1,1 1,-1 m -73,3 -1,1 1,-1 m 74,5 -1,1 1,-1 m 3.6667,4.66669 -0.3334,0.66662 0.3334,-0.66662 m -740.6667,171.33331 22.39043,-1.02777 13.40973,-20.97223 31.19984,-53 h 2 c 7.85239,27.20532 32.99063,48.55371 43,75 h 23 c -10.11116,-27.78479 -31.38922,-54.64764 -46.60031,-80 -6.76514,-11.27551 -11.49329,-24.05774 -27.29552,-19.68213 -7.21855,1.99884 -12.81091,17.67896 -16.52855,23.68213 -15.06169,24.32141 -33.25377,49.72546 -44.57562,76 m 192,-99 1,34 v 65 h 104 v -19 h -84 v -58 c 0,-5.08765 2.23691,-17.27466 -1.02777,-21.39661 -3.00836,-3.79834 -15.93301,-1.79736 -19.97223,-0.60339 m 137,-1 v 19 h 52 v 58 l 1.0278,21.39661 18.9722,1.60339 v -60 c 0,-4.7406 -2.1904,-16.96387 2.3179,-19.97223 3.5344,-2.35846 10.6171,-1.02777 14.6821,-1.02777 h 36 v -19 h -125 m 181,1 1,58 -1,40 20,1 v -100 l -20,1 m 109,-0.57178 c -30.3036,4.35102 -23,37.70459 -23,60.57178 0,10.82544 -1.9367,23.33167 6.1883,31.90588 7.1159,7.5094 17.2654,7.09412 26.8117,7.09412 20.963,0 44.3076,2.88513 65,-0.43982 28.123,-4.51892 21,-41.8739 21,-62.56018 0,-9.75757 1.0097,-21.1488 -6.2138,-28.89581 -6.9109,-7.41169 -17.281,-8.10053 -26.7862,-8.10419 -20.4652,-0.008 -42.7458,-2.47986 -63,0.42822 m 154,-0.42822 v 100 h 20 v -81 h 54 c 6.3852,0 15.8421,-1.1001 20.5663,4.22839 6.0252,6.7959 2.1123,19.38013 -6.5663,21.37732 -16.9467,3.89991 -38.5927,0.39429 -56,0.39429 l 39,38 19.0008,16.43597 26.9992,0.56403 c -6.659,-13.64221 -25.2409,-25.24078 -36,-36 10.3489,0 21.1168,-0.20667 28.895,-8.09412 12.69773,-12.87609 10.06603,-43.32446 -5.895,-52.37268 -9.7001,-5.49896 -23.2989,-3.5332 -34,-3.5332 h -70 m 176.00003,100 21.6211,-1.02777 12.9792,-19.97223 31.3997,-54 h 2 c 5.8666,18.53088 21.0084,36.18079 30.7161,53 3.3769,5.85071 7.7503,17.41821 13.6126,20.97223 5.1086,3.09711 15.8233,1.02777 21.6713,1.02777 -3.1313,-9.89435 -10.1254,-19.10449 -15.3966,-28 -9.4823,-16.00159 -19.0521,-31.95886 -28.4645,-48 -3.5268,-6.01068 -9.922,-22.3681 -17.1821,-23.77161 -15.6377,-3.02307 -19.146,7.24579 -26.2732,18.77161 -10.3765,16.7804 -20.0776,34.02686 -30.1357,51 -5.6133,9.47247 -13.4252,19.38397 -16.5479,30 M 733.26667,827.79613 c 15.7064,-2.8407 34.0344,-0.32947 50,-0.32947 5.5031,0 13.2036,-1.11395 17.3472,3.41895 3.4888,3.81665 2.6528,9.8319 2.6528,14.58105 0,10.28491 5.3613,40.89807 -8.0008,43.65588 -15.7263,3.24579 -34.9333,0.34412 -50.9992,0.34412 -5.3196,0 -13.216,1.40118 -17.4275,-2.65277 -3.8121,-3.6695 -2.5725,-10.56854 -2.5725,-15.34723 0,-11.26062 -5.7258,-41.0072 9,-43.67053 m -610,135.67053 c 6.39008,13.38196 31.15318,8 44,8 h 132 l 1,-7 -17,-1 h -36 -124 m 561,1 -1,40.99994 h 8 l -1,-41.99994 -6,1 m 66,-1 -1,41.99994 h 7 c 0,-7.78954 0.6442,-16.36188 -0.6111,-23.99994 -0.5072,-3.08594 -1.1619,-7.44727 2.6111,-8 l -2,2 c 7.0925,9.03137 14.3188,29.84894 27,29.99994 v -40.99994 h -6 v 30 c -8.2911,-10.01416 -13.682,-27.64191 -27,-31 m 174,34 -2,5.99994 c 9.5807,3.6896 33.4024,4.4631 26.9668,-12.99609 -3.0099,-8.16535 -12.4868,-6.69416 -17.5139,-12.3974 -8.159,-9.25635 10.3221,-8.15796 14.5471,-6.60645 l 2,-6 c -9.3222,-2.13098 -35.5916,0.10193 -23.142,16.48145 4.1511,5.46148 13.7961,4.55773 16.9189,10.70605 5.7449,11.31054 -13.7735,6.6835 -17.7769,4.8125 m 75,-34 v 8 h 132.00003 c 12.8468,0 37.6099,5.38196 44,-8 H 999.26667 m -648,41.99994 c 7.00488,-0.083 8.9899,-3.262 10,-9.99994 10.59772,0 19.07571,-2.30457 22,9.99994 h 7 l -2,-5.99994 h -1 v 3.99994 h -1 c 0,-3.51794 -2.57657,-6.89411 1,-5.99994 -1.66296,-7.18481 -8.23145,-35.20477 -17.89276,-32.67749 -4.41168,1.15405 -5.11936,7.05127 -6.55707,10.67749 -3.90341,9.84521 -8.64227,19.82788 -11.55017,29.99994 m 96,-40.99994 1,41.99994 h 5 l 1,-41.99994 h -7 m 67,0 -1,40.99994 h 7 l 1,-16.99994 9,2 -3,-4 6,-2 -3,4 c 10.206,-1.93085 19.7976,-14.17273 7.6597,-22.08026 -6.0389,-3.93427 -16.7409,-1.91974 -23.6597,-1.91974 m 88,0 v 40.99994 h 25 v -4.9999 l -19,-1.00004 1,-35 h -7 m 239,40.99994 h 27 v -4.9999 h -20 l 1,-14.00004 h 15 v -5 l -18,-1 3.6034,-9.39661 17.3966,-1.60339 v -5 l -24.3966,1.02777 -1.6034,10.97223 v 28.99994 m 163.00003,-40.99994 v 1 l -3,1 3,-2 m -873.00003,1 1,2 h -2 l 1,-2 m 238,0 -1,1 1,-1 m 5,0 -1,1 1,-1 m 79,0 -1,1 1,-1 m 64,0 -1,3 h -1 v -3 h 2 m 4,0 v 1 h -3 l 3,-1 m 83,0 v 4 h -1 l 1,-4 m 82,0 -1,1 1,-1 m 93,0 -1,1 1,-1 m 68.6667,0.66663 -0.3334,0.66674 0.3334,-0.66674 m 11.3333,-0.66663 v 1 h -3 l 3,-1 m 1.6667,0.66663 -0.3334,0.66674 0.3334,-0.66674 m 71.3333,-0.66663 v 3 l -2,1 v 1 l -3,-1 5,-4 m 236.00003,0.33337 0.3334,0.33326 c -0.4936,0.16449 -1.107,-0.33326 -0.3334,-0.33326 m 3.6666,0.33326 -0.3332,0.66674 0.3332,-0.66674 m -6,1 -0.3332,0.66674 0.3332,-0.66674 m -219.66663,0.33337 -1,1 1,-1 m 56.00003,0 -1,1 1,-1 m 168,0 -3,3 3,-3 m -800.00003,1 -1,1 1,-1 m 165,0 -1,1 1,-1 m 4,0 -1,1 1,-1 m -4,5 4,-1 v 4 h -1 l -1,-3 h -1 c -0.2568,10.62598 -7.028,11 -16,11 v -15 c 5.4197,0 11.9173,-1.27673 15,4 m 223,-4 3,5 -3,-5 m 257.00003,0 v 1 h -3 l 3,-1 m -478.00003,1 -1,1 1,-1 m 3,0 2,5 h -1 l -1,-5 m -174,1 2,1 -1,3 -1,-2 h -1 l -1,5 h -1 l 3,-7 m 6,0 5,19 h -13 l 6,-19 h 2 m 318,2 -1,1 1,-1 m 62,0 v 8 h -1 l 1,-8 m 30,0 v 6 h -1 l 1,-6 m -23,1 2,4 -2,-4 m -243,1 v 4 h -1 l 1,-4 m 238,0 v 6 h -1 l 1,-6 m -305,1 v 5 h -1 l 1,-5 m 158,0 v 5 h -1 l 1,-5 m 172,0 v 7 h -1 l 1,-7 m 68,1 -1,1 1,-1 m -470,3 -1,1 1,-1 m 3,0 -1,1 1,-1 m 139,0 -2,2 2,-2 m -68.3333,1.66663 -0.3334,0.66674 0.3334,-0.66674 m 312.3333,-0.66663 -1,1 1,-1 m 182,5 v 1 l -11,-4 11,3 m -96,-3 -2,2 v -2 h 2 m 3,0 -1,1 1,-1 m 11,0 v 2 h -2 v -2 h 2 m -702,1 c 6.18552,12.34912 23.99559,8 36,8 h 103 l -1,-8 h -138 m 838,0 v 8 h 102.00003 c 12.355,0 29.167,4.21509 36,-8 H 999.26667 m -835,1 15,1 v 1 l -16,-1 1,-1 m 361,0 -3,2 v -1 l 3,-1 m 79,0 v 8 h -1 l 1,-8 m 332,0.33337 0.3333,0.33326 c -0.4936,0.16455 -1.1066,-0.33326 -0.3333,-0.33326 m 65.66673,0.33326 -0.3334,0.66674 0.3334,-0.66674 m 8.3333,0.33337 v 1 h -7 l 7,-1 m 123.6666,-0.33337 -0.3332,0.66674 0.3332,-0.66674 m -952.66663,0.33337 -1,1 1,-1 m 2,0 -1,1 1,-1 m 40,0 v 1 h -19 l 19,-1 m 37,0 v 1 h -8 l 8,-1 m 36,0.33337 c 0.77341,0 0.16016,0.49781 -0.33334,0.33326 l 0.33334,-0.33326 m 645,1.66663 -3,-1 3,1 m 88.00003,-2 v 1 h -17 l 17,-1 m 63,0 v 1 h -16 l 16,-1 m 2,0 -1,1 1,-1 m 2,0 -1,1 1,-1 m 2,0 -1,1 1,-1 m 2,0 -1,1 1,-1 m 29,0 v 1 h -7 l 7,-1 m -957.00003,2 c -2e-5,3.10205 3.36728,2 6,2 v 1 h -8 l 2,-3 m 361,0 2,5 -4,-3 1,3 -3,-2 8,13.99994 h 8 l -12,-16.99994 m 471.00003,0 -1,1 1,-1 m -836.00003,1 -1,1 1,-1 m 601,0 -1,1 1,-1 m 3,0 -1,1 1,-1 m -572,1 -1,1 1,-1 m 4,0 v 1 h -3 l 3,-1 m 2,0 -1,1 1,-1 m 2,0 -1,1 1,-1 m 2,0 -1,1 1,-1 m 2,0 -1,1 1,-1 m 307,0 -1,1 1,-1 m 88,0 -1,1 1,-1 m 145,0 v 5 h -1 l 1,-5 m 340.00003,0 v 1 h -10 l 10,-1 m 34,0 v 1 h -4 l 4,-1 m -372.00003,1 v 5 h -1 l 1,-5 m 17,0 1,3 -1,-3 m 2,0 -1,1 1,-1 m -166.3333,1.66663 -0.3334,0.66674 0.3334,-0.66674 m -248.6667,0.33337 -1,1 1,-1 m 174.6667,0.66663 -0.3334,0.66674 0.3334,-0.66674 m 241.3333,-0.66663 1,3 -1,-3 m -414,1 -2,6.00004 h -1 l 1,-3.00004 -3,2 2,-2 3,-3 m 176,0 -1,1 1,-1 m 244,0 -1,1 1,-1 m 2,0 v 7.00004 h -1 l 1,-7.00004 m -264,1.33331 c 0.7734,0 0.1602,0.49787 -0.3333,0.33338 l 0.3333,-0.33338 m -135,0.66669 2,6.00004 -2,-6.00004 m 133,0 v 5.00004 h -1 l 1,-5.00004 m 18,0 -1,1 1,-1 m 411,0 -1,3 h -1 l 2,-3 m -427,1 v 5.00004 h -1 l 1,-5.00004 m 172,0 v 5.00004 h -1 l 1,-5.00004 m 84,0 -1,1 1,-1 m 6,0 -1,1 1,-1 m 167,0 -1,1 1,-1 m -406,3.00004 1,3.9999 h -1 v -3.9999 m 236,0 -1,1 1,-1 m 168,0.3333 0.3333,0.3334 c -0.4935,0.1645 -1.1068,-0.3334 -0.3333,-0.3334 m -590,0.6667 -1,1 1,-1 m 264,1 v 0.9999 h -5 l 5,-0.9999 m 161,-1 -1,1 1,-1 m 82,1 -7,1.9999 v -2.9999 l 7,1 m -505,0 -1,0.9999 1,-0.9999 m 182,0 -1,0.9999 1,-0.9999 m 73,0.3332 0.3333,0.3334 c -0.4935,0.1645 -1.1066,-0.3334 -0.3333,-0.3334 m 240,-0.3332 -1,0.9999 1,-0.9999 m -652,2.9999 c 5.21225,11.1087 16.31047,8.0001 27,8.0001 h 72 v -8.0001 h -99 m 799,0 v 8.0001 h 72.00003 c 11.337,0 21.3801,2.6874 28,-8.0001 H 999.26667 m 94.00003,1 2,3.0001 -1,1 -1,-4.0001 m 3,0 -1,1 1,-1 m -892.00003,1 -1,1.0001 1,-1.0001 m 93,0 -1,1.0001 1,-1.0001 m 704.66673,0.6668 -0.3334,0.6666 0.3334,-0.6666 m 5.3333,-0.6668 v 1.0001 h -4 l 4,-1.0001 m 70,0 -1,1.0001 z"
       id="path1" />
  </g>
</svg>
